<svg id="圖層_1" data-name="圖層 1" xmlns="http://www.w3.org/2000/svg" viewBox="0 0 335.62 360.35"><path d="M-245.89,449.86H-405c-7.4,0-9.06-1.63-9.06-9q0-123.18-.07-246.35c0-4.41,1.49-7.11,5.27-9.37q78.58-46.8,157-93.88c3.92-2.35,7.07-2.39,11,0q78.08,46.55,156.33,92.81c4.27,2.52,6,5.42,6,10.47q-.21,122.81-.1,245.6c0,7.38-1.61,9-9,9H-245.89ZM-319.31,281c-8.74-.05-7.65.61-12.9-7.19q-6.48-9.63-12.85-19.34c-6.68-10.24-3.69-21.65,7.12-27.21,6.09-3.14,12-6.76,18.44-9.07,10.88-3.93,18-10.76,20.51-22.23a16.32,16.32,0,0,1,1.3-3.1c2.7-5.81,6.48-11,12.19-13.81,11.63-5.74,23.62-10.83,37-10.58,10,.19,19.37,3.32,28.38,7.4,21,9.48,37.95,24.26,51.72,42.24,45.25,59,59.32,125.3,43.76,198-1.5,7-3.63,13.87-5.46,20.8h39.43c.06-.78.13-1.26.13-1.75q0-119.07-.09-238.12a5.51,5.51,0,0,0-2.44-3.91q-75-44.73-150.15-89.32a5.07,5.07,0,0,0-6,0Q-324,148.66-398.93,193.27a5.54,5.54,0,0,0-3.17,5.55q.12,117.36.06,234.74v4h51.44a3.85,3.85,0,0,0,.1-1c-.33-1.2-.69-2.39-1.06-3.59a157.89,157.89,0,0,1-6.88-44.64C-358.88,347.71-343.14,313.08-319.31,281Zm132.85,156.18c14,0,27.82.06,41.65-.12.91,0,2.26-1.63,2.63-2.76,10.71-32.77,14.37-66.24,9.79-100.52a223.84,223.84,0,0,0-39-100.15c-.79-1.14-1.71-2.18-2.56-3.26-.58,5-.57,9.68-1.74,14.07A29.63,29.63,0,0,1-208.31,266c-14.5-1.8-25.69-14.4-26-29.32-.11-5.74.23-11.52-.26-17.23-1.27-14.75-9.84-26.15-18-37.63-.53-.73-2.49-1-3.57-.69-5.86,1.66-11.66,3.57-17.47,5.41a21.08,21.08,0,0,0-13.94,13.09c-2.08,5.34-4,10.75-6.52,15.91a13.59,13.59,0,0,1-5,5.54c-4.81,2.85-9.92,5.21-15,7.61-2,.93-2.6,1.87-2.25,4.26a30.89,30.89,0,0,1-.22,9.64c-1.2,7-5.43,12.17-11.18,16.24,1.71,2.6,3.44,4.91,4.83,7.4,1.16,2.07,2.61,2.49,4.88,2.28,15.26-1.46,30.53-3.11,45.83-4,7.14-.4,12.49-2,14.35-9.65a1.19,1.19,0,0,1,.18-.33c1.9-3.17,4.94-4.24,7.91-2.79,3.12,1.52,4.26,4.77,2.67,8.25s-3.43,6.66-5,10.08a8,8,0,0,1-7.48,5.16c-7.52.52-15,1.38-22.7,2.12,0,5.42-.18,10.41.11,15.38a5.57,5.57,0,0,0,2.48,3.82c4,2.31,8.15,4.32,12.33,6.26,14.12,6.52,22.33,17.44,24.88,32.81.56,3.38,1.15,7.11,3,9.85,5.73,8.6,6.7,17.24,2.08,26.51-.41.82-1,2.27-.62,2.64,3.32,3.55,5.09,8.37,10.34,10.33,20.47,7.62,33.62,22.16,39.37,43.3C-187.51,431.16-187.09,434.12-186.46,437.22Zm-59.29-53.34c-4.47,2.8-8.08,5.54-12.08,7.47a39.53,39.53,0,0,1-46.39-9.75c-2.54-2.92-2.59-6.32-.14-8.73s5.78-2.29,8.7.32c1.11,1,2.12,2.12,3.25,3.1a26.77,26.77,0,0,0,18.14,6.8c13.11-.1,21.37-8.21,26.81-18.08,2.23-4,1-8.14-1.5-12a39.3,39.3,0,0,1-3.94-8.62,57,57,0,0,1-1.64-8.06c-1.84-10-7.28-17.33-16.42-21.86-6.25-3.1-12.45-6.31-18.74-9.34a7.21,7.21,0,0,1-4.55-7.39c.14-5.23,0-10.47,0-16.06-10.22,2.11-17.58,7.47-22.57,16.19-1.61,2.81-3.1,5.71-4.87,8.42-18.32,28-26.73,58.57-24.28,92a152,152,0,0,0,8.27,38.61h138.57c0-.71,0-1.21,0-1.7a13,13,0,0,0-.25-1.86c-3.64-15.95-12.46-28.2-27.4-34.86C-234.53,395-242,391.94-245.75,383.88Zm8.48-201.44c2.36,4,4.16,7.06,6,10.12a57.58,57.58,0,0,1,8.64,26c.43,5.85.16,11.74.28,17.6.21,10.32,8,18.05,18.09,18a17.72,17.72,0,0,0,17.79-18.26c-.17-13.83-5.41-25.57-15.81-34.67a88,88,0,0,0-28.18-16.63C-232.37,183.92-234.37,183.36-237.27,182.44ZM-328,236.05c-9,3.49-10.87,7.34-6.19,12.48A13.2,13.2,0,0,0-328,236.05Z" transform="translate(414.09 -89.52)"/><path d="M-198.38,293.33c2.56-2.68,4.63-5,6.85-7.14,10.07-9.78,24.71-9.94,34.17-.42S-148.14,310-158,320q-17.38,17.56-34.91,35c-4,4-6.85,4-10.84,0q-17.47-17.48-34.91-35c-9.9-10-10.13-24.7-.63-34.21s24.15-9.31,34.17.49C-203,288.39-200.89,290.69-198.38,293.33Zm-.47,49.66c11.46-11.24,22.86-22.05,33.8-33.3,4.21-4.34,3.2-11.42-1.17-15.59a11.59,11.59,0,0,0-15.95-.22c-4,3.63-7.59,7.6-11.45,11.32-3.23,3.12-6.27,3.12-9.5,0-3.41-3.29-6.7-6.71-10.08-10-5.49-5.43-12.71-5.74-17.59-.78s-4.56,11.92.79,17.36,10.93,11,16.4,16.44Z" transform="translate(414.09 -89.52)"/><path d="M-264.29,218.74a8.29,8.29,0,0,1-8.29,8.34,8.28,8.28,0,0,1-8.13-8.12,8.26,8.26,0,0,1,8.29-8.33A8.26,8.26,0,0,1-264.29,218.74Z" transform="translate(414.09 -89.52)"/><path d="M-276.3,349.35a8.29,8.29,0,0,1-8.15-8.47,8.27,8.27,0,0,1,8.26-8,8.26,8.26,0,0,1,8.15,8.46A8.28,8.28,0,0,1-276.3,349.35Z" transform="translate(414.09 -89.52)"/></svg>